<?xml version="1.0" standalone="no"?>
<!DOCTYPE svg PUBLIC "-//W3C//DTD SVG 20010904//EN"
 "http://www.w3.org/TR/2001/REC-SVG-20010904/DTD/svg10.dtd">
<svg version="1.0" xmlns="http://www.w3.org/2000/svg"
 width="1000.000000pt" height="1000.000000pt" viewBox="0 0 1000.000000 1000.000000"
 preserveAspectRatio="xMidYMid meet">
<metadata>
Created by potrace 1.11, written by Peter Selinger 2001-2013
</metadata>
<g transform="translate(0.000000,1000.000000) scale(0.100000,-0.100000)"
fill="#000000" stroke="none">
<path d="M0 5000 l0 -5000 5000 0 5000 0 0 5000 0 5000 -5000 0 -5000 0 0
-5000z m7660 1562 c0 -8 -722 -432 -748 -438 -11 -3 -365 228 -967 629 l-950
634 -952 -635 -953 -635 0 -1117 0 -1117 953 -635 952 -635 950 634 c522 348
955 633 960 633 6 0 96 -50 200 -111 105 -61 275 -161 378 -221 l188 -110
-1338 -893 -1338 -892 -1337 891 -1337 891 0 1565 0 1565 1337 891 1337 891
1333 -889 c732 -488 1332 -891 1332 -896z m-2095 -509 c311 -207 565 -379 565
-383 0 -4 -256 -156 -570 -339 l-570 -333 -2 -709 -3 -709 -567 378 -567 377
-1 667 0 668 568 379 c312 209 570 380 575 380 4 1 261 -168 572 -376z"/>
</g>
</svg>
